<?xml version="1.0" encoding="UTF-8"?>
<svg width="148px" height="56px" viewBox="0 0 148 56" version="1.1" xmlns="http://www.w3.org/2000/svg" xmlns:xlink="http://www.w3.org/1999/xlink">
    <title>Group 41</title>
    <defs>
        <polygon id="path-1" points="0.6216 0.480464286 10.5678298 0.480464286 10.5678298 11.2101786 0.6216 11.2101786"></polygon>
        <polygon id="path-3" points="0.660095745 0.378242857 13.4298191 0.378242857 13.4298191 16.5 0.660095745 16.5"></polygon>
        <polygon id="path-5" points="0.017712766 0.378164286 14.4327553 0.378164286 14.4327553 16.5 0.017712766 16.5"></polygon>
        <polygon id="path-7" points="0.627661702 0.688521429 12.9295319 0.688521429 12.9295319 16.1898786 0.627661702 16.1898786"></polygon>
        <polygon id="path-9" points="0 0.436071429 46.5939426 0.436071429 46.5939426 39.1889143 0 39.1889143"></polygon>
        <polygon id="path-11" points="0 0.222828571 31.0626021 0.222828571 31.0626021 7.9739 0 7.9739"></polygon>
        <polygon id="path-13" points="0 55 147.546553 55 147.546553 0.436071429 0 0.436071429"></polygon>
    </defs>
    <g id="Symbols" stroke="none" stroke-width="1" fill="none" fill-rule="evenodd">
        <g id="header/ofi" transform="translate(-123.000000, -121.000000)">
            <g id="Group-41" transform="translate(123.000000, 121.000000)">
                <polygon id="Fill-1" fill="#FFFFFF" points="66 32 55 32 55 16 65.9587586 16 65.9587586 19.4402149 58.4268555 19.4402149 58.4268555 22.206498 65.5173228 22.206498 65.5173228 25.6337371 58.4268555 25.6337371 58.4268555 28.5605961 66 28.5605961"></polygon>
                <polygon id="Fill-2" fill="#FFFFFF" points="78.5008794 25.8864558 71.4721773 25.8864558 71.4721773 32 68 32 68 16 79 16 79 19.4395783 71.4721773 19.4395783 71.4721773 22.4339011 78.5008794 22.4339011"></polygon>
                <polygon id="Fill-3" fill="#FFFFFF" points="91.5000704 25.8864558 84.4724216 25.8864558 84.4724216 32 81 32 81 16 92 16 92 19.4395783 84.4724216 19.4395783 84.4724216 22.4339011 91.5000704 22.4339011"></polygon>
                <g id="Group-40">
                    <path d="M97.1592447,23.6881857 C97.1592447,26.3533286 98.8777766,28.1958286 101.29616,28.1958286 C103.713755,28.1958286 105.432287,26.3533286 105.432287,23.6881857 C105.432287,21.0230429 103.713755,19.1805429 101.29616,19.1805429 C98.8777766,19.1805429 97.1592447,21.0230429 97.1592447,23.6881857 M109.12284,23.6881857 C109.12284,28.3294 105.877862,31.7496143 101.29616,31.7496143 C96.7136702,31.7496143 93.4679043,28.3294 93.4679043,23.6881857 C93.4679043,19.0469714 96.7136702,15.6275429 101.29616,15.6275429 C105.877862,15.6275429 109.12284,19.0469714 109.12284,23.6881857" id="Fill-4" fill="#FFFFFF"></path>
                    <path d="M114.452257,19.2922714 L114.452257,22.5254857 L117.318577,22.5254857 C118.588385,22.5254857 119.370896,22.0053429 119.370896,20.8982714 C119.370896,19.8014143 118.56713,19.2922714 117.318577,19.2922714 L114.452257,19.2922714 Z M117.361087,15.9372714 C121.020938,15.9372714 122.966194,17.8418429 122.966194,20.8982714 C122.966194,23.3559857 121.486194,25.0829857 118.830853,25.5269143 L123.082704,31.4386286 L118.873364,31.4386286 L114.970257,25.6369143 L114.452257,25.6369143 L114.452257,31.4386286 L110.919938,31.4386286 L110.919938,15.9372714 L117.361087,15.9372714 Z" id="Fill-6" fill="#FFFFFF"></path>
                    <polygon id="Fill-8" fill="#FFFFFF" points="137.18057 19.3698214 132.801974 19.3698214 132.801974 31.4383929 129.268868 31.4383929 129.268868 19.3698214 124.879251 19.3698214 124.879251 15.9378214 137.18057 15.9378214"></polygon>
                    <g id="Group-12" transform="translate(136.978723, 20.428571)">
                        <mask id="mask-2" fill="white">
                            <use xlink:href="#path-1"></use>
                        </mask>
                        <g id="Clip-11"></g>
                        <path d="M4.06653617,4.37446429 C4.6593234,3.96117857 5.08994043,3.59896429 5.08994043,3.22182143 C5.08994043,2.80067857 4.75772766,2.49739286 4.22162128,2.49739286 C3.67842979,2.49739286 3.36038723,2.78653571 3.36038723,3.28075 C3.36038723,3.59110714 3.51547234,3.81267857 4.06653617,4.37446429 L4.06653617,4.37446429 Z M5.29462128,8.67625 L3.69889787,7.06475 C3.26828085,7.43403571 2.98645106,7.80332143 2.98645106,8.20246429 C2.98645106,8.78625 3.40211064,9.15632143 4.07362128,9.15632143 C4.51762128,9.15632143 4.9136,8.97875 5.29462128,8.67625 L5.29462128,8.67625 Z M7.6098766,11.0176786 L6.70691915,10.1093929 C5.97951489,10.7301071 5.05451489,11.2101786 3.85398298,11.2101786 C1.80717447,11.2101786 0.6216,10.0944643 0.6216,8.43189286 C0.6216,7.24153571 1.38364255,6.35525 2.27951489,5.63160714 C1.53164255,4.80346429 1.15062128,4.14582143 1.15062128,3.19982143 C1.15062128,1.60403571 2.37240851,0.480464286 4.22162128,0.480464286 C6.05036596,0.480464286 7.27845106,1.56632143 7.27845106,3.18489286 C7.27845106,4.24953571 6.40304681,5.06196429 5.44262128,5.77853571 L6.69274894,7.05689286 L8.16802553,5.11303571 L9.7629617,6.33325 L8.11764255,8.51989286 L10.5683021,11.0176786 L7.6098766,11.0176786 Z" id="Fill-10" fill="#FF242F" mask="url(#mask-2)"></path>
                    </g>
                    <path d="M57.8928766,42.5429714 L57.8928766,45.7761857 L60.7607702,45.7761857 C62.0305787,45.7761857 62.8130894,45.2560429 62.8130894,44.1489714 C62.8130894,43.0521143 62.0093234,42.5429714 60.7607702,42.5429714 L57.8928766,42.5429714 Z M60.8024936,39.1879714 C64.4639191,39.1879714 66.4107489,41.0925429 66.4107489,44.1489714 C66.4107489,46.6074714 64.9291745,48.3344714 62.2730468,48.7776143 L66.5272596,54.6901143 L62.3155574,54.6901143 L58.4116638,48.8876143 L57.8928766,48.8876143 L57.8928766,54.6901143 L54.3597702,54.6901143 L54.3597702,39.1879714 L60.8024936,39.1879714 Z" id="Fill-13" fill="#FFFFFF"></path>
                    <polygon id="Fill-15" fill="#FFFFFF" points="79.0182234 54.6901143 67.6796915 54.6901143 67.6796915 39.1887571 78.9757128 39.1887571 78.9757128 42.5209714 71.2120106 42.5209714 71.2120106 45.2010429 78.5214787 45.2010429 78.5214787 48.5214714 71.2120106 48.5214714 71.2120106 51.3571143 79.0182234 51.3571143"></polygon>
                    <g id="Group-19" transform="translate(79.510638, 38.500000)">
                        <mask id="mask-4" fill="white">
                            <use xlink:href="#path-3"></use>
                        </mask>
                        <g id="Clip-18"></g>
                        <path d="M11.6459468,5.0666 C10.5847553,4.39952857 9.13073404,3.75602857 7.39015957,3.75602857 C6.04162766,3.75602857 5.05443617,4.23374286 5.05443617,5.15538571 C5.05443617,6.13281429 6.46594681,6.36695714 8.11126596,6.6671 L8.72688298,6.77867143 C11.6144574,7.30038571 13.4298191,8.71152857 13.4298191,11.2556714 C13.4298191,14.9563857 10.3832234,16.5003143 7.1988617,16.5003143 C4.72537234,16.5003143 2.30620213,15.8222429 0.660095745,14.5226714 L2.43294681,11.5000286 C3.5681383,12.3116714 5.13945745,13.1343143 7.2311383,13.1343143 C8.5678617,13.1343143 9.58732979,12.6558143 9.58732979,11.6893857 C9.58732979,10.7551714 8.58911702,10.4888143 6.6462234,10.1784571 L5.9038617,10.0558857 C2.84624468,9.55617143 1.19147872,8.11124286 1.2442234,5.31174286 C1.29696809,2.2891 3.75943617,0.378242857 7.2311383,0.378242857 C9.2362234,0.378242857 10.9775851,0.723171429 13.2275,2.02274286 L11.6459468,5.0666 Z" id="Fill-17" fill="#FFFFFF" mask="url(#mask-4)"></path>
                    </g>
                    <path d="M97.6251298,42.5429714 L97.6251298,46.1533286 L100.38596,46.1533286 C101.654981,46.1533286 102.437491,45.5334 102.437491,44.3595429 C102.437491,43.1739 101.654981,42.5429714 100.38596,42.5429714 L97.6251298,42.5429714 Z M97.6251298,49.4525429 L97.6251298,54.6901143 L94.0928106,54.6901143 L94.0928106,39.1879714 L100.438704,39.1879714 C104.098555,39.1879714 106.034364,41.2481143 106.034364,44.3595429 C106.034364,47.4151857 104.098555,49.4525429 100.470194,49.4525429 L97.6251298,49.4525429 Z" id="Fill-20" fill="#FFFFFF"></path>
                    <polygon id="Fill-22" fill="#FFFFFF" points="118.525249 54.6901143 107.186717 54.6901143 107.186717 39.1887571 118.482738 39.1887571 118.482738 42.5209714 110.719036 42.5209714 110.719036 45.2010429 118.027717 45.2010429 118.027717 48.5214714 110.719036 48.5214714 110.719036 51.3571143 118.525249 51.3571143"></polygon>
                    <g id="Group-26" transform="translate(119.659574, 38.500000)">
                        <mask id="mask-6" fill="white">
                            <use xlink:href="#path-5"></use>
                        </mask>
                        <g id="Clip-25"></g>
                        <path d="M14.4327553,4.11973571 L11.3247553,5.98502143 C10.550117,4.66345 9.33147872,3.93195 7.79243617,3.93195 C5.44884043,3.93195 3.70905319,5.77366429 3.70905319,8.43880714 C3.70905319,11.3263071 5.6078617,12.94645 7.80345745,12.94645 C9.30943617,12.94645 10.5406702,12.2251643 11.3885213,10.9043786 L14.2949894,13.0580214 C12.9377979,15.1786643 10.6776489,16.5002357 7.83494681,16.5002357 C3.25324468,16.5002357 0.017712766,13.1468071 0.017712766,8.43880714 C0.017712766,3.73080714 3.25324468,0.378164286 7.83494681,0.378164286 C10.6674149,0.378164286 13.1700319,1.76652143 14.4327553,4.11973571" id="Fill-24" fill="#FFFFFF" mask="url(#mask-6)"></path>
                    </g>
                    <g id="Group-29" transform="translate(134.617021, 38.500000)">
                        <mask id="mask-8" fill="white">
                            <use xlink:href="#path-7"></use>
                        </mask>
                        <g id="Clip-28"></g>
                        <polygon id="Fill-27" fill="#FFFFFF" mask="url(#mask-8)" points="12.9297681 4.12052143 8.55117234 4.12052143 8.55117234 16.1898786 5.01727872 16.1898786 5.01727872 4.12052143 0.627661702 4.12052143 0.627661702 0.688521429 12.9297681 0.688521429"></polygon>
                    </g>
                    <g id="Group-32">
                        <mask id="mask-10" fill="white">
                            <use xlink:href="#path-9"></use>
                        </mask>
                        <g id="Clip-31"></g>
                        <path d="M27.1799638,0.435914286 L-7.87234043e-05,0.435914286 L7.76598511,8.1862 L27.1799638,8.1862 C33.6132404,8.1862 38.8278787,13.3915571 38.8278787,19.8124143 C38.8278787,26.2332714 33.6132404,31.4386286 27.1799638,31.4386286 L-7.87234043e-05,31.4386286 L-7.87234043e-05,39.1889143 L27.1799638,39.1889143 C37.9013043,39.1889143 46.5939426,30.5138429 46.5939426,19.8124143 C46.5939426,9.11098571 37.9013043,0.435914286 27.1799638,0.435914286" id="Fill-30" fill="#FFFFFF" mask="url(#mask-10)"></path>
                    </g>
                    <g id="Group-35" transform="translate(0.000000, 15.714286)">
                        <mask id="mask-12" fill="white">
                            <use xlink:href="#path-11"></use>
                        </mask>
                        <g id="Clip-34"></g>
                        <path d="M27.1799638,7.9739 L-7.87234043e-05,7.9739 L-7.87234043e-05,0.222828571 L27.1799638,0.222828571 C29.3243894,0.222828571 31.0626021,1.95847143 31.0626021,4.09797143 C31.0626021,6.23825714 29.3243894,7.9739 27.1799638,7.9739" id="Fill-33" fill="#FFFFFF" mask="url(#mask-12)"></path>
                    </g>
                    <mask id="mask-14" fill="white">
                        <use xlink:href="#path-13"></use>
                    </mask>
                    <g id="Clip-37"></g>
                    <polygon id="Fill-36" fill="#FFFFFF" mask="url(#mask-14)" points="0 54.6904286 7.76606383 54.6904286 7.76606383 15.9374286 0 15.9374286"></polygon>
                    <polygon id="Fill-38" fill="#FFFFFF" mask="url(#mask-14)" points="27.1799638 54.6901143 -7.87234043e-05 54.6901143 -7.87234043e-05 46.9398286 19.4139 46.9398286"></polygon>
                    <polygon id="Fill-39" fill="#FFFFFF" mask="url(#mask-14)" points="23.3045681 31.4386286 11.6479936 31.4386286 34.9453979 54.6902714 46.6019723 54.6902714"></polygon>
                </g>
            </g>
        </g>
    </g>
</svg>