<?xml version="1.0" encoding="utf-8"?>
<svg width="25px" height="24px" viewbox="0 0 25 24" version="1.1" xmlns:xlink="http://www.w3.org/1999/xlink" xmlns="http://www.w3.org/2000/svg">
  <path d="M25 2.57143L25 21.4286C25 22.8482 23.8002 24 22.3214 24L17.5614 24L17.5614 14.5071L20.9431 14.5071L21.4286 10.8857L17.5614 10.8857L17.5614 8.57143C17.5614 7.52143 17.8627 6.80893 19.4308 6.80893L21.4286 6.80893L21.4286 3.57321C21.0826 3.53036 19.8996 3.42857 18.5156 3.42857C15.6362 3.42857 13.6607 5.11607 13.6607 8.21786L13.6607 10.8911L10.2679 10.8911L10.2679 14.5125L13.6663 14.5125L13.6663 24L2.67857 24C1.19978 24 0 22.8482 0 21.4286L0 2.57143C0 1.15179 1.19978 0 2.67857 0L22.3214 0C23.8002 0 25 1.15179 25 2.57143Z" id="Shape" fill="#FFFFFF" stroke="none" />
</svg>