<?xml version="1.0" encoding="utf-8"?>
<svg width="26px" height="24px" viewbox="0 0 26 24" version="1.1" xmlns:xlink="http://www.w3.org/1999/xlink" xmlns="http://www.w3.org/2000/svg">
  <g id="instagram">
    <path d="M12.9009 5.8467C9.24084 5.8467 6.2886 8.594 6.2886 12C6.2886 15.406 9.24084 18.1533 12.9009 18.1533C16.561 18.1533 19.5132 15.406 19.5132 12C19.5132 8.594 16.561 5.8467 12.9009 5.8467ZM12.9009 16.0004C10.5357 16.0004 8.60205 14.2064 8.60205 12C8.60205 9.7936 10.5299 7.99955 12.9009 7.99955C15.2719 7.99955 17.1998 9.7936 17.1998 12C17.1998 14.2064 15.2662 16.0004 12.9009 16.0004L12.9009 16.0004ZM21.326 5.595C21.326 6.39295 20.6354 7.03024 19.7837 7.03024C18.9262 7.03024 18.2414 6.38759 18.2414 5.595C18.2414 4.80241 18.932 4.15977 19.7837 4.15977C20.6354 4.15977 21.326 4.80241 21.326 5.595ZM25.7054 7.05166C25.6076 5.12909 25.1357 3.42608 23.6222 2.02298C22.1144 0.619882 20.2844 0.180743 18.2184 0.0843468C16.0891 -0.0281156 9.70698 -0.0281156 7.57769 0.0843468C5.51745 0.175388 3.68741 0.614526 2.17389 2.01763C0.660368 3.42073 0.194226 5.12373 0.0906388 7.0463C-0.0302129 9.02778 -0.0302129 14.9669 0.0906388 16.9483C0.188471 18.8709 0.660368 20.5739 2.17389 21.977C3.68741 23.3801 5.5117 23.8193 7.57769 23.9157C9.70698 24.0281 16.0891 24.0281 18.2184 23.9157C20.2844 23.8246 22.1144 23.3855 23.6222 21.977C25.13 20.5739 25.6019 18.8709 25.7054 16.9483C25.8263 14.9669 25.8263 9.03314 25.7054 7.05166ZM22.9546 19.0744C22.5057 20.1241 21.6368 20.9327 20.5031 21.3558C18.8054 21.9824 14.777 21.8378 12.9009 21.8378C11.0248 21.8378 6.99069 21.977 5.29877 21.3558C4.17082 20.9381 3.30184 20.1294 2.84721 19.0744C2.17389 17.4946 2.32927 13.7458 2.32927 12C2.32927 10.2542 2.17965 6.50006 2.84721 4.92558C3.29609 3.87593 4.16507 3.06728 5.29877 2.6442C6.99645 2.01763 11.0248 2.16222 12.9009 2.16222C14.777 2.16222 18.8111 2.02298 20.5031 2.6442C21.631 3.06192 22.5 3.87058 22.9546 4.92558C23.6279 6.50541 23.4726 10.2542 23.4726 12C23.4726 13.7458 23.6279 17.4999 22.9546 19.0744Z" id="Shape" fill="#FFFFFF" stroke="none" />
  </g>
</svg>